<?xml version="1.0" encoding="utf-8"?>
<!-- Generator: Adobe Illustrator 16.0.0, SVG Export Plug-In . SVG Version: 6.00 Build 0)  -->
<!DOCTYPE svg PUBLIC "-//W3C//DTD SVG 1.1//EN" "http://www.w3.org/Graphics/SVG/1.1/DTD/svg11.dtd">
<svg version="1.1" id="Layer_1" xmlns="http://www.w3.org/2000/svg" xmlns:xlink="http://www.w3.org/1999/xlink" x="0px" y="0px"
	 width="224.15px" height="188.439px" viewBox="0 0 224.15 188.439" enable-background="new 0 0 224.15 188.439"
	 xml:space="preserve">
<g>
	<path fill="#FFFFFF" d="M219.588,33.961l-9.209,7.892c-10.465-8.739-22.449-15.714-35.49-20.474l2.096-9.789
		c0.652-3.241-1.123-6.251-4.039-6.851l-8.656-1.787c-1.309-0.269-2.664,0.002-3.818,0.764c-1.313,0.869-2.258,2.314-2.584,3.94
		l-1.836,8.568c-7.082-1.319-14.381-2.014-21.838-2.014c-7.053,0-13.963,0.621-20.68,1.803l-2.19-8.731
		c-0.828-3.203-3.736-5.136-6.626-4.401L96.15,5.054c-1.295,0.328-2.396,1.164-3.102,2.355c-0.802,1.354-1.02,3.067-0.604,4.672
		l2.228,8.892C81.08,25.775,68.627,32.996,57.798,42.09l-5.901-6.535c-2.222-2.448-5.697-2.805-7.91-0.814l-6.574,5.91
		c-0.994,0.893-1.58,2.146-1.65,3.527c-0.08,1.572,0.523,3.189,1.639,4.418l6.517,7.219c-8.825,10.279-15.929,22.077-20.864,34.939
		l-9.14-2.453c-3.21-0.804-6.298,0.828-7.033,3.714l-2.189,8.565c-0.331,1.293-0.123,2.66,0.585,3.848
		c0.806,1.352,2.206,2.363,3.815,2.767l8.505,2.286c-1.56,7.671-2.384,15.605-2.384,23.73c0,6.592,0.549,13.057,1.585,19.36
		l-8.271,1.047c-3.276,0.455-5.529,3.127-5.129,6.08l1.183,8.76c0.178,1.322,0.883,2.512,1.985,3.35
		c1.026,0.777,2.335,1.195,3.677,1.195c0.298,0,0.598-0.021,0.896-0.063l10.449-1.318c1.575,4.605,3.415,9.09,5.521,13.422h7.846
		c-2.408-4.594-4.5-9.379-6.262-14.316c-0.796-2.23-1.526-4.49-2.182-6.781l-7.02,0.883l-8.197,1.029l-0.736-5.449l7.582-0.955
		l6.987-0.881c-0.527-2.268-0.986-4.563-1.373-6.881c-1.005-6.014-1.539-12.186-1.539-18.481c0-7.497,0.746-14.821,2.158-21.909
		c0.459-2.301,0.988-4.575,1.586-6.823l-6.757-1.82l-7.312-1.971l1.361-5.328l7.489,2.016l6.762,1.819
		c0.715-2.237,1.5-4.442,2.35-6.615c4.521-11.563,10.905-22.2,18.79-31.532c1.514-1.793,3.086-3.535,4.709-5.229l-4.701-5.205
		l-5.31-5.878l4.09-3.677l5.129,5.677l4.693,5.194c1.694-1.604,3.442-3.151,5.233-4.649c9.982-8.345,21.426-14.998,33.896-19.487
		c2.193-0.79,4.418-1.513,6.674-2.167l-1.703-6.797l-1.854-7.401l5.331-1.352l1.844,7.359l1.703,6.79
		c2.262-0.536,4.553-1.002,6.866-1.399c6.17-1.057,12.506-1.615,18.973-1.615c6.955,0,13.762,0.645,20.369,1.864
		c2.305,0.425,4.586,0.921,6.84,1.486l1.473-6.853l1.621-7.561l5.387,1.111l-1.693,7.902l-1.475,6.874
		c2.256,0.686,4.482,1.437,6.674,2.259c13.617,5.106,25.986,12.789,36.508,22.455l2.068-0.225l7.895-6.813L219.588,33.961z"/>
	<path fill="#FFFFFF" d="M66.855,70.578v23.328c-20.141,0.458-37.25,14.637-37.25,32.075c0,17.726,16.678,32.097,37.25,32.097v-15.5
		c-10.079,0-18.25-7.22-18.25-16.125c0-8.608,8.574-15.622,18.25-16.081v32.206h18.5v-72H66.855z"/>
	<rect x="89.355" y="70.578" fill="#FFFFFF" width="15.25" height="14"/>
	<rect x="89.355" y="91.328" fill="#FFFFFF" width="15.25" height="51.25"/>
	<path fill="#FFFFFF" d="M181.606,90.078v1.817c-16.107,2.409-28.25,13.114-28.25,25.961s12.143,23.552,28.25,25.96v1.262h13.75v-55
		H181.606z M171.272,118.245c0-5.454,4.254-10.136,10.334-12.188v24.376C175.526,128.382,171.272,123.7,171.272,118.245z"/>
	<path fill="#FFFFFF" d="M135.356,106.578h16c0,0-0.25-15.193-22.75-15.193c-22.5,0-21,15.193-21,15.193s-2,16,20.75,18
		c0,0,6.5,0.251,6.75,4.25c0.232,3.744-1.295,5-5.648,5c-4.352,0-6.352-6.25-6.352-6.25h-15.545c0,0-1.955,17.5,23.795,17.5
		c0,0,21.5-0.75,21.166-18.167c0,0,1.752-12.833-19.748-16c0,0-8.334-0.833-8.334-5.583c0,0-0.584-3.417,4.916-3.417
		S135.356,106.578,135.356,106.578z"/>
	<g>
		<path fill="#FFFFFF" d="M68.429,161.93l5.382-13.822h1.974l5.714,13.822h-2.112l-1.623-4.186h-5.87l-1.517,4.186H68.429z
			 M72.433,156.254h4.753l-1.45-3.828c-0.449-1.176-0.777-2.131-0.986-2.867c-0.181,0.887-0.436,1.768-0.765,2.641L72.433,156.254z"
			/>
		<path fill="#FFFFFF" d="M92.072,148.108h1.846v7.986c0,1.338-0.16,2.438-0.481,3.295c-0.32,0.859-0.904,1.535-1.75,2.033
			c-0.847,0.496-1.924,0.744-3.229,0.744c-1.84,0-3.218-0.447-4.134-1.34s-1.374-2.469-1.374-4.732v-7.986h1.846v7.977
			c0,1.252,0.12,2.156,0.36,2.715c0.239,0.561,0.632,0.986,1.178,1.279c0.546,0.291,1.209,0.438,1.99,0.438
			c1.315,0,2.27-0.301,2.861-0.904s0.888-1.779,0.888-3.527V148.108z"/>
		<path fill="#FFFFFF" d="M100.604,161.93v-12.191h-4.597v-1.631h11.062v1.631h-4.619v12.191H100.604z"/>
		<path fill="#FFFFFF" d="M108.078,155.198c0-2.357,0.639-4.168,1.915-5.436c1.277-1.266,2.867-1.9,4.771-1.9
			c1.23,0,2.352,0.283,3.365,0.85s1.816,1.387,2.408,2.465c0.594,1.078,0.889,2.363,0.889,3.852c0,2.051-0.572,3.719-1.717,5.008
			c-1.262,1.42-2.914,2.131-4.957,2.131c-2.058,0-3.714-0.729-4.968-2.188C108.647,158.659,108.078,157.065,108.078,155.198z
			 M109.982,155.223c0,1.703,0.462,3.027,1.387,3.967c0.925,0.941,2.049,1.412,3.372,1.412c1.354,0,2.49-0.477,3.406-1.426
			c0.918-0.949,1.375-2.346,1.375-4.189c0-1.189-0.234-2.252-0.707-3.189c-0.363-0.719-0.912-1.291-1.643-1.723
			s-1.529-0.646-2.396-0.646c-1.393,0-2.541,0.471-3.442,1.416C110.433,151.788,109.982,153.247,109.982,155.223z"/>
		<path fill="#FFFFFF" d="M123.713,161.93v-13.822h2.775l3.313,9.787l0.662,2.047c0.162-0.51,0.41-1.248,0.744-2.217l3.346-9.617
			h2.484v13.822h-1.775V150.37l-4.068,11.561h-1.658l-4.047-11.76v11.76H123.713z"/>
		<path fill="#FFFFFF" d="M139.487,155.198c0-2.357,0.639-4.168,1.916-5.436c1.277-1.266,2.867-1.9,4.77-1.9
			c1.23,0,2.354,0.283,3.367,0.85s1.816,1.387,2.408,2.465s0.889,2.363,0.889,3.852c0,2.051-0.574,3.719-1.719,5.008
			c-1.262,1.42-2.914,2.131-4.955,2.131c-2.059,0-3.715-0.729-4.969-2.188C140.057,158.659,139.487,157.065,139.487,155.198z
			 M141.391,155.223c0,1.703,0.463,3.027,1.387,3.967c0.926,0.941,2.049,1.412,3.373,1.412c1.354,0,2.488-0.477,3.406-1.426
			c0.916-0.949,1.375-2.346,1.375-4.189c0-1.189-0.236-2.252-0.709-3.189c-0.363-0.719-0.91-1.291-1.641-1.723
			c-0.732-0.432-1.531-0.646-2.398-0.646c-1.393,0-2.539,0.471-3.441,1.416C141.842,151.788,141.391,153.247,141.391,155.223z"/>
		<path fill="#FFFFFF" d="M158.754,161.93v-12.191h-4.596v-1.631h11.061v1.631H160.6v12.191H158.754z"/>
		<path fill="#FFFFFF" d="M167.438,161.93v-13.822h1.846v13.822H167.438z"/>
		<path fill="#FFFFFF" d="M176.51,161.93l-5.418-13.822h1.996l3.639,10.041c0.279,0.779,0.523,1.535,0.732,2.264
			c0.217-0.76,0.465-1.516,0.744-2.264l3.777-10.041h1.879l-5.453,13.822H176.51z"/>
		<path fill="#FFFFFF" d="M185.543,161.93v-13.822h10.086v1.631h-8.24v4.225h7.719v1.631h-7.719v4.705h8.566v1.631H185.543z"/>
	</g>
	<g>
		<g>
			<path fill="#FFFFFF" d="M196.608,87.429c-3.629,0-6.582-2.953-6.582-6.583s2.953-6.583,6.582-6.583
				c3.631,0,6.584,2.953,6.584,6.583S200.239,87.429,196.608,87.429z M196.608,75.51c-2.941,0-5.336,2.394-5.336,5.336
				s2.395,5.336,5.336,5.336c2.943,0,5.336-2.394,5.336-5.336S199.551,75.51,196.608,75.51z"/>
		</g>
		<g>
			<path fill="#FFFFFF" d="M193.926,84.293v-6.895h2.928c0.738,0,1.273,0.063,1.607,0.187s0.602,0.344,0.801,0.66
				c0.201,0.317,0.301,0.679,0.301,1.087c0,0.517-0.152,0.944-0.455,1.281c-0.305,0.337-0.76,0.549-1.363,0.637
				c0.301,0.176,0.549,0.368,0.744,0.578c0.195,0.211,0.461,0.584,0.793,1.12l0.842,1.345h-1.666l-1.006-1.5
				c-0.357-0.537-0.602-0.874-0.732-1.014c-0.133-0.14-0.271-0.235-0.42-0.287c-0.146-0.052-0.381-0.077-0.699-0.077h-0.283v2.878
				H193.926z M195.317,80.314h1.029c0.668,0,1.086-0.028,1.252-0.085s0.297-0.153,0.391-0.291c0.094-0.139,0.141-0.311,0.141-0.518
				c0-0.231-0.063-0.419-0.186-0.562c-0.125-0.143-0.299-0.233-0.525-0.271c-0.111-0.016-0.451-0.023-1.016-0.023h-1.086V80.314z"/>
		</g>
	</g>
</g>
</svg>
