<?xml version="1.0" encoding="utf-8"?>
<!-- Generator: Adobe Illustrator 24.3.0, SVG Export Plug-In . SVG Version: 6.00 Build 0)  -->
<svg version="1.1" id="Layer_1" xmlns="http://www.w3.org/2000/svg" xmlns:xlink="http://www.w3.org/1999/xlink" x="0px" y="0px"
	 viewBox="0 0 189.6 170.5" style="enable-background:new 0 0 189.6 170.5;" xml:space="preserve">
<style type="text/css">
	.st0{fill:#D71921;}
	.st1{fill:#FFFFFF;}
</style>
<g>
	<path class="st0" d="M164,74.1c-2.9,0-5.2-2.3-5.2-5.2s2.3-5.2,5.2-5.2s5.2,2.3,5.2,5.2S166.9,74.1,164,74.1z M164,64.9
		c-2.2,0-3.9,1.8-3.9,3.9s1.8,3.9,3.9,3.9c2.2,0,3.9-1.8,3.9-3.9S166.2,64.9,164,64.9z"/>
	<g>
		<path class="st0" d="M58.5,60.9v20.5c-1.4-0.2-2.8-0.4-4.2-0.4c-14,0-25.4,11.4-25.4,25.4s11.4,25.4,25.4,25.4
			c1.4,0,2.8-0.1,4.2-0.4v-10.5h15.2v-6.6V90.5V60.9H58.5z M58.5,112.5v7.8c-7.7,0-13.9-6.2-13.9-13.9s6.2-13.9,13.9-13.9V112.5z"/>
	</g>
	<g>
		<polygon class="st0" points="75.7,78.1 75.7,94.7 75.7,100.4 75.7,114.9 75.7,120.7 75.7,120.8 88.7,120.8 88.7,116.2 88.7,99.2 
			88.7,78.1 		"/>
	</g>
	<g>
		<polygon class="st0" points="75.7,60.9 75.7,65.8 75.7,67.5 75.7,71.8 75.7,73.5 75.7,73.6 88.7,73.6 88.7,72.2 88.7,67.1 
			88.7,60.9 		"/>
	</g>
	<g>
		<path class="st0" d="M124.5,98.5c-3.7-4.1-15.7-6-15.7-6c-3.9-0.3-2.9-3.2-3-3.4c0.5-2.6,3.6-2.1,3.6-2.1c4.4-0.2,4.2,3.9,4.2,3.9
			h13.1c-1.1-7.7-6-10.3-6-10.3c-5.2-2.7-12.7-2.5-12.7-2.5c-8.1,0.3-11.7,3.6-11.7,3.6c-5.6,3.7-4.2,12.9-4.2,12.9
			c0.9,8.8,14.8,10.2,14.8,10.2c2.4,0.5,4.2,1.1,4.2,1.1c1,0.5,2.7,0.8,2.4,4c-0.3,2.4-3.9,2.5-3.9,2.5c-5.4,0.1-5.2-5-5.2-5H90.8
			c0,11.3,10.4,13.1,10.4,13.1s3.9,1.1,11.7,0.7S125,116,125,116C132.5,106.2,124.5,98.5,124.5,98.5z"/>
	</g>
	<g>
		<path class="st0" d="M151.4,77.4V79c-0.8-0.1-1.7-0.2-2.6-0.2c-11.3,0-20.5,9.2-20.5,20.5s9.2,20.5,20.5,20.5
			c0.9,0,1.7-0.1,2.6-0.2v1.4v0.2h11.5v-4.8v-2.3V103v-3.9v-3.4V84.5v-7.1H151.4z M141.9,99.3c0-5.5,4.2-10.1,9.5-10.7v5.9v5.9v9.7
			C146.1,109.4,141.9,104.9,141.9,99.3z"/>
	</g>
	<g>
		<path class="st0" d="M64.1,124H66l4.5,11h-2.1l-1.2-2.9h-4.5l-1.1,2.9h-2L64.1,124z M63.2,130.6h3.5l-0.7-1.8
			c-0.1-0.2-0.2-0.5-0.3-0.7c-0.1-0.2-0.2-0.5-0.3-0.7s-0.2-0.4-0.2-0.7c-0.1-0.2-0.2-0.5-0.2-0.8l0,0c-0.2,0.5-0.4,1-0.5,1.4
			c-0.2,0.4-0.3,0.9-0.6,1.4L63.2,130.6z"/>
		<path class="st0" d="M71.2,124h2v6.6c0,1.1,0.2,1.9,0.6,2.4s1.1,0.7,2.1,0.7c0.9,0,1.6-0.3,2-0.8s0.6-1.2,0.6-2.1V124h2v6.7
			c0,1.5-0.4,2.7-1.2,3.4c-0.8,0.7-1.9,1.1-3.4,1.1s-2.6-0.4-3.4-1.1s-1.2-1.9-1.2-3.5L71.2,124L71.2,124z"/>
		<path class="st0" d="M90.7,124v1.5h-3.5v9.5h-2v-9.5h-3.4V124H90.7z"/>
		<path class="st0" d="M96.8,123.8c0.8,0,1.5,0.1,2.2,0.4c0.7,0.2,1.3,0.6,1.7,1.1c0.5,0.5,0.9,1.1,1.1,1.8s0.4,1.5,0.4,2.4
			s-0.1,1.7-0.4,2.4s-0.7,1.3-1.2,1.8s-1.1,0.8-1.8,1.1c-0.7,0.2-1.4,0.4-2.2,0.4c-0.8,0-1.5-0.1-2.2-0.4c-0.7-0.2-1.3-0.6-1.7-1.1
			c-0.5-0.5-0.9-1.1-1.1-1.8c-0.3-0.7-0.4-1.5-0.4-2.5c0-0.9,0.1-1.7,0.4-2.4c0.3-0.7,0.7-1.3,1.2-1.8s1.1-0.8,1.8-1.1
			C95.3,123.9,96,123.8,96.8,123.8z M93.3,129.5c0,0.7,0.1,1.3,0.3,1.9c0.2,0.5,0.4,1,0.7,1.3c0.3,0.3,0.7,0.6,1.1,0.8
			s0.9,0.3,1.3,0.3c0.5,0,0.9-0.1,1.3-0.3s0.8-0.4,1.1-0.8s0.5-0.8,0.7-1.3s0.3-1.1,0.3-1.9c0-0.7-0.1-1.4-0.3-1.9
			c-0.2-0.5-0.4-1-0.7-1.3c-0.3-0.3-0.7-0.6-1.1-0.8c-0.4-0.2-0.9-0.2-1.3-0.2c-0.5,0-0.9,0.1-1.3,0.3c-0.4,0.2-0.8,0.4-1.1,0.8
			s-0.5,0.8-0.7,1.3C93.4,128.1,93.3,128.7,93.3,129.5z"/>
		<path class="st0" d="M104.9,124h2.5l2,5.9c0.2,0.5,0.3,1,0.4,1.4s0.3,0.9,0.4,1.4h0.1c0.1-0.4,0.3-0.9,0.4-1.3
			c0.1-0.5,0.3-0.9,0.4-1.4l2-5.9h2.5l1,11h-1.9c-0.1-1.2-0.2-2.3-0.3-3.5s-0.2-2.4-0.2-3.6l-0.1-2l0,0c-0.2,0.7-0.4,1.5-0.7,2.2
			c-0.2,0.7-0.5,1.5-0.7,2.1l-1.6,4.7h-1.7l-1.7-4.7c-0.2-0.5-0.3-1-0.5-1.4s-0.2-0.8-0.3-1.1c-0.1-0.3-0.2-0.7-0.3-1
			c-0.1-0.3-0.2-0.6-0.2-0.9h-0.1c0,1-0.1,2-0.2,3s-0.1,2-0.2,3l-0.2,3.1h-1.9L104.9,124z"/>
		<path class="st0" d="M123.8,123.8c0.8,0,1.5,0.1,2.2,0.4c0.7,0.2,1.3,0.6,1.7,1.1c0.5,0.5,0.9,1.1,1.1,1.8s0.4,1.5,0.4,2.4
			s-0.1,1.7-0.4,2.4c-0.3,0.7-0.7,1.3-1.2,1.8s-1.1,0.8-1.8,1.1c-0.7,0.2-1.4,0.4-2.2,0.4c-0.8,0-1.5-0.1-2.2-0.4
			c-0.7-0.2-1.3-0.6-1.7-1.1c-0.5-0.5-0.9-1.1-1.1-1.8c-0.3-0.7-0.4-1.5-0.4-2.5c0-0.9,0.1-1.7,0.4-2.4c0.3-0.7,0.7-1.3,1.2-1.8
			s1.1-0.8,1.8-1.1C122.2,123.9,123,123.8,123.8,123.8z M120.3,129.5c0,0.7,0.1,1.3,0.3,1.9c0.2,0.5,0.4,1,0.7,1.3
			c0.3,0.3,0.7,0.6,1.1,0.8s0.9,0.3,1.3,0.3c0.5,0,0.9-0.1,1.3-0.3s0.8-0.4,1.1-0.8s0.5-0.8,0.7-1.3s0.3-1.1,0.3-1.9
			c0-0.7-0.1-1.4-0.3-1.9c-0.2-0.5-0.4-1-0.7-1.3c-0.3-0.3-0.7-0.6-1.1-0.8c-0.4-0.2-0.9-0.2-1.3-0.2c-0.5,0-0.9,0.1-1.3,0.3
			c-0.4,0.2-0.8,0.4-1.1,0.8s-0.5,0.8-0.7,1.3C120.4,128.1,120.3,128.7,120.3,129.5z"/>
		<path class="st0" d="M138.7,124v1.5h-3.5v9.5h-2v-9.5h-3.4V124H138.7z"/>
		<path class="st0" d="M142.1,124v11h-2v-11H142.1z"/>
		<path class="st0" d="M145.4,124l2.2,6c0.1,0.2,0.2,0.4,0.2,0.7c0.1,0.2,0.2,0.5,0.3,0.8s0.2,0.5,0.3,0.8s0.2,0.5,0.2,0.7l0,0
			c0.1-0.2,0.1-0.5,0.2-0.7c0.1-0.2,0.2-0.5,0.3-0.8s0.2-0.5,0.3-0.7s0.2-0.4,0.2-0.6l2.3-6.1h2l-4.4,11h-2l-4.4-11h2.3V124z"/>
		<path class="st0" d="M155.4,124h7.2v1.5h-5.2v3h4.7v1.5h-4.7v3.5h5.3v1.5h-7.2v-11H155.4z"/>
	</g>
	<g>
		<path class="st0" d="M162,65.6h2.1c0.3,0,0.6,0,0.9,0.1c0.2,0.1,0.5,0.2,0.6,0.4c0.2,0.2,0.3,0.3,0.4,0.6s0.1,0.4,0.1,0.7
			c0,0.2,0,0.4-0.1,0.6s-0.2,0.3-0.3,0.5c-0.1,0.1-0.2,0.2-0.4,0.3c-0.1,0.1-0.3,0.2-0.4,0.2l1.6,2.4h-1.2l-1.3-2.2h-1v2.2h-1V65.6z
			 M163,68.4h0.7c0.2,0,0.4,0,0.5-0.1c0.2,0,0.3-0.1,0.4-0.2c0.1-0.1,0.2-0.2,0.3-0.3c0.1-0.1,0.1-0.3,0.1-0.5
			c0-0.3-0.1-0.6-0.3-0.8c-0.2-0.2-0.5-0.3-0.9-0.3H163V68.4z"/>
	</g>
	<path class="st1" d="M179.4,42.8l3.1-3.1l-3.3,2.9C179.3,42.6,179.3,42.7,179.4,42.8z"/>
	<path class="st0" d="M27.3,141.5c-0.7-2.2-1.4-4.4-1.9-6.6c0-0.1-0.1-0.1-0.1-0.1l-5.7,1.4l-3.8,0.9c-0.1,0-0.1,0-0.1-0.1l-0.8-3.1
		c0-0.1,0-0.1,0.1-0.1l3.8-1l5.7-1.4c0.1,0,0.1-0.1,0.1-0.1c-0.5-2.2-0.9-4.5-1.2-6.8c-0.5-4-0.8-8-0.8-12.1
		c0-5.5,0.5-10.9,1.4-16.1c0.4-2.3,0.9-4.5,1.5-6.8c0-0.1,0-0.1-0.1-0.1l-5.6-1.7l-4.9-1.5c-0.1,0-0.1-0.1-0.1-0.1l0.9-3
		c0-0.1,0.1-0.1,0.1-0.1l4.8,1.5l5.6,1.7c0.1,0,0.1,0,0.1-0.1c0.7-2.2,1.4-4.4,2.2-6.5c3.6-9.3,8.6-17.8,14.9-25.3
		c1.5-1.8,3-3.5,4.6-5.1v-0.1l-4-4.3L40.4,41c0,0,0-0.1,0-0.2l2.3-2.2c0,0,0.1,0,0.2,0l3.5,3.8l4,4.3c0,0,0.1,0,0.2,0
		c1.7-1.6,3.4-3.1,5.2-4.6c7.5-6.2,16-11.1,25.2-14.6c2.1-0.8,4.3-1.5,6.6-2.2c0.1,0,0.1-0.1,0.1-0.1l-1.4-5.7l-1-4.2
		c0-0.1,0-0.1,0.1-0.1l3.1-0.7c0.1,0,0.1,0,0.1,0.1l1,4.1l1.4,5.7c0,0.1,0.1,0.1,0.1,0.1c2.2-0.6,4.5-1,6.7-1.4
		c4.9-0.8,9.8-1.3,14.9-1.3c5.3,0,10.6,0.5,15.7,1.4c2.3,0.4,4.5,0.9,6.8,1.5c0.1,0,0.1,0,0.1-0.1l1.6-5.7l1.3-4.4
		c0-0.1,0.1-0.1,0.1-0.1l3,0.9c0.1,0,0.1,0.1,0.1,0.1l-1.3,4.3l-1.6,5.7c0,0.1,0,0.1,0.1,0.1c2.2,0.7,4.4,1.4,6.5,2.3
		c10.3,4,19.7,9.9,27.8,17.2c1.3,1.2,3.3,1.1,4.5-0.1l5.1-5.1v-0.1l-0.3-8c0-0.1-0.1-0.1-0.2-0.1l-7.4,6.9l0,0
		c-8.2-7-17.6-12.6-27.8-16.6c-0.1,0-0.1-0.1-0.1-0.1l1.8-6.2c0.4-1.4,0.2-2.9-0.5-4.2l0,0c-0.7-1.2-1.9-2.1-3.3-2.5l-6.1-1.8
		c-2.9-0.8-6,0.8-6.8,3.7l-1.8,6.3c0,0.1-0.1,0.1-0.1,0.1c-5.6-1-11.3-1.6-17.2-1.6c-5.5,0-11,0.5-16.2,1.4c-0.1,0-0.1,0-0.1-0.1
		L95,11.1c-0.3-1.4-1.3-2.6-2.5-3.4l0,0c-1.2-0.7-2.7-0.9-4.1-0.6l-6.2,1.5c-2.9,0.7-4.8,3.7-4.1,6.5l1.5,6.3c0,0.1,0,0.1-0.1,0.1
		c-10.1,3.8-19.5,9.2-27.7,16h-0.1L47,32.4c-1-1.1-2.4-1.7-3.9-1.7l0,0c-1.4,0-2.8,0.5-3.9,1.5l-4.6,4.3c-2.2,2.1-2.4,5.5-0.3,7.7
		l5.1,5.5v0.1C32.5,58,27,67.4,23.1,77.5c0,0.1-0.1,0.1-0.1,0.1l-6.6-2c-1.4-0.4-2.9-0.3-4.2,0.5l0,0C11,76.8,10,78,9.6,79.3
		l-1.9,6.1c-0.9,2.9,0.7,6,3.5,6.9l7,2.2c0.1,0,0.1,0.1,0.1,0.1c-1.1,5.8-1.6,11.7-1.6,17.8c0,4.6,0.3,9.1,0.9,13.5
		c0,0.1,0,0.1-0.1,0.1l-5.9,1.5c-1.4,0.4-2.6,1.3-3.4,2.6l0,0c-0.7,1.2-0.9,2.7-0.5,4.1l1.5,6.2c0.7,2.9,3.7,4.8,6.6,4l5.6-1.4
		c0.1,0,0.1,0,0.1,0.1c1.8,5.5,4.1,10.7,6.8,15.7l0.1,0.1H35c0.1,0,0.1-0.1,0.1-0.2C31.9,153.2,29.3,147.5,27.3,141.5z"/>
</g>
<g id="XIEptN_1_">
	
		<image style="overflow:visible;" width="240" height="210" id="XIEptN_2_" xlink:href="E2E3040B06D40C6A.jpg"  transform="matrix(1 0 0 1 300.5 -105)">
	</image>
</g>
</svg>
