<?xml version="1.0" encoding="utf-8"?>
<!-- Generator: Adobe Illustrator 16.0.0, SVG Export Plug-In . SVG Version: 6.00 Build 0)  -->
<!DOCTYPE svg PUBLIC "-//W3C//DTD SVG 1.1//EN" "http://www.w3.org/Graphics/SVG/1.1/DTD/svg11.dtd">
<svg version="1.1" id="Layer_1" xmlns="http://www.w3.org/2000/svg" xmlns:xlink="http://www.w3.org/1999/xlink" x="0px" y="0px"
	 width="671.398px" height="447.6px" viewBox="0 0 671.398 447.6" enable-background="new 0 0 671.398 447.6" xml:space="preserve">
<polygon fill="#FFFFFF" points="0,0 671.398,0 671.398,447.599 0,447.599 "/>
<g>
	<polygon fill="#D72031" points="16.801,17.751 654.597,17.751 654.597,429.848 16.801,429.848 	"/>
	<path fill="#FEFEFE" d="M229.428,120.693c37.814,0,71.007,19.176,89.83,48.022c-15.563-16.813-38.126-27.39-63.27-27.39
		c-46.97,0-85.04,36.925-85.04,82.474c0,45.55,38.069,82.475,85.04,82.475c25.143,0,47.708-10.577,63.27-27.391
		c-18.822,28.847-52.016,48.024-89.83,48.024c-58.706,0-106.299-46.156-106.299-103.108
		C123.129,166.848,170.723,120.693,229.428,120.693z"/>
	<polygon fill="#FFFFFF" points="320.052,223.801 359,211.657 358.916,172.15 382.896,204.156 421.787,191.877 397.693,223.801 
		421.787,255.723 382.896,243.444 358.916,275.45 359,235.944 	"/>
</g>
</svg>
