<?xml version="1.0" encoding="utf-8"?>
<!-- Generator: Adobe Illustrator 16.0.0, SVG Export Plug-In . SVG Version: 6.00 Build 0)  -->
<!DOCTYPE svg PUBLIC "-//W3C//DTD SVG 1.1//EN" "http://www.w3.org/Graphics/SVG/1.1/DTD/svg11.dtd">
<svg version="1.1" id="Layer_1" xmlns="http://www.w3.org/2000/svg" xmlns:xlink="http://www.w3.org/1999/xlink" x="0px" y="0px"
	 width="671.398px" height="447.6px" viewBox="0 0 671.398 447.6" enable-background="new 0 0 671.398 447.6" xml:space="preserve">
<rect y="0" fill="#FFFFFF" width="671.398" height="447.6"/>
<g>
	<path fill="#CF142B" d="M303.76,14.251c21.293,0,42.585,0,63.878,0c-0.025,0.652-0.08,1.305-0.08,1.957
		c-0.004,54.325-0.004,118.394,0.002,172.719c0,0.84,0.08,1.678,0.143,2.818c1.289,0,2.432,0,3.58,0
		c93.523,0,187.053,0,280.58-0.005c1.078,0,2.158-0.069,3.234-0.106c0,27.94,0,36.392,0,64.333c-0.58-0.035-1.158-0.104-1.738-0.104
		c-94.441-0.006-188.885-0.006-283.324-0.006c-0.787,0-1.572,0-2.479,0c0,1.523,0,2.499,0,3.473c0,53.89,0,117.52,0.002,171.409
		c0,0.871,0.055,1.741,0.082,2.61c-21.293,0-42.586,0-63.879,0c0.027-0.65,0.08-1.304,0.08-1.956
		c0.003-54.326,0.003-118.396-0.001-172.718c0-0.84-0.082-1.679-0.14-2.818c-1.288,0-2.434,0-3.578,0
		c-93.528,0-187.055,0-280.582,0.004c-1.079,0-2.159,0.069-3.238,0.106c0-27.94,0-36.393,0-64.333
		c0.58,0.037,1.161,0.106,1.741,0.106c94.441,0.004,188.883,0.004,283.324,0.004c0.787,0,1.573,0,2.477,0c0-1.523,0-2.498,0-3.472
		c0-53.89,0-117.519-0.002-171.409C303.84,15.991,303.786,15.121,303.76,14.251z"/>
	<path fill="#00247D" d="M292.266,14.251c0,51.101,0,102.201,0,153.755c-0.996-0.65-1.703-1.048-2.375-1.561
		C224.062,116.182,158.237,65.912,92.414,15.635c-0.537-0.409-1.038-0.921-1.556-1.383
		C157.994,14.251,225.129,14.251,292.266,14.251z"/>
	<path fill="#00247D" d="M580.81,14.251c-15.258,11.672-30.506,23.389-45.783,35.012c-50.605,38.494-101.223,76.955-151.838,115.423
		c-0.896,0.684-1.826,1.278-3.057,2.134c0-51.199,0-101.883,0-152.566C447.023,14.251,513.917,14.251,580.81,14.251z"/>
	<path fill="#00247D" d="M90.788,433.348c15.301-11.561,30.588-23.159,45.905-34.669c50.742-38.124,101.493-76.213,152.244-114.307
		c0.9-0.678,1.832-1.266,3.066-2.114c0,50.702,0,100.898,0,151.09C224.93,433.348,157.859,433.348,90.788,433.348z"/>
	<path fill="#00247D" d="M379.615,433.348c0-50.085,0-100.167,0-150.702c0.99,0.636,1.699,1.03,2.371,1.531
		c65.713,49.263,131.426,98.539,197.133,147.817c0.535,0.4,1.035,0.901,1.555,1.355
		C513.652,433.348,446.632,433.348,379.615,433.348z"/>
	<path fill="#CF142B" d="M654.583,14.251c-14.879,11.376-29.74,22.795-44.631,34.123c-57.439,43.689-114.883,87.364-172.355,130.949
		c-1.611,1.219-3.576,1.902-5.379,1.918c-14.869,0.151-29.738,0.088-44.791-0.523c0.838-0.709,1.658-1.466,2.516-2.117
		c71.012-53.986,142.023-107.963,213.033-161.956c0.902-0.686,1.732-1.589,2.598-2.395C621.91,14.251,638.248,14.251,654.583,14.251
		z"/>
	<path fill="#CF142B" d="M16.818,433.348c14.842-11.202,29.671-22.438,44.526-33.597c57.667-43.329,115.338-86.649,173.04-129.875
		c1.616-1.212,3.586-1.887,5.396-1.905c14.907-0.146,29.815-0.085,44.91,0.52c-0.84,0.701-1.664,1.453-2.523,2.099
		c-71.201,53.464-142.404,106.914-213.603,160.388c-0.904,0.68-1.737,1.578-2.605,2.368
		C49.579,433.348,33.198,433.348,16.818,433.348z"/>
	<path fill="#00247D" d="M16.301,71.194c14.195,10.78,28.4,21.534,42.582,32.354c33.46,25.529,66.91,51.095,100.362,76.646
		c0.768,0.585,1.532,1.182,2.259,2.509c-48.401,0-96.803,0-145.205,0C16.301,145.532,16.301,108.363,16.301,71.194z"/>
	<path fill="#00247D" d="M655.099,181.331c-48.215,0-96.43,0-145.391,0c1.014-0.9,1.398-1.29,1.813-1.6
		c47.385-36.04,94.771-72.075,142.156-108.104c0.457-0.348,0.945-0.6,1.42-0.9C655.099,107.596,655.099,144.464,655.099,181.331z"/>
	<path fill="#00247D" d="M16.301,267.889c48.344,0,96.686,0,145.779,0c-1.017,0.89-1.406,1.272-1.818,1.582
		c-47.511,35.691-95.023,71.378-142.537,107.057c-0.458,0.346-0.949,0.596-1.423,0.89C16.301,340.909,16.301,304.397,16.301,267.889
		z"/>
	<path fill="#00247D" d="M655.099,377.54c-14.17-10.569-28.352-21.107-42.508-31.713c-33.402-25.025-66.793-50.08-100.188-75.123
		c-0.77-0.576-1.527-1.166-2.258-2.46c48.318,0,96.635,0,144.951,0C655.099,304.675,655.099,341.107,655.099,377.54z"/>
	<path fill="#CF142B" d="M16.819,14.251c0.835,0.839,1.625,1.813,2.513,2.493c71.371,54.542,142.75,109.061,214.127,163.583
		c0.688,0.527,1.374,1.066,2.589,2.008c-1.107,0.175-1.699,0.351-2.291,0.352c-14.582,0.015-29.167,0.083-43.75-0.088
		c-1.711-0.018-3.548-0.953-5.106-2.141C129.705,138.4,74.535,96.258,19.356,54.147c-0.984-0.754-2.035-1.295-3.056-1.936
		c0-11.875-0.01-23.748,0.021-35.62C16.325,15.809,16.646,15.031,16.819,14.251z"/>
	<path fill="#CF142B" d="M654.583,433.348c-0.836-0.818-1.625-1.775-2.514-2.443c-71.244-53.458-142.5-106.895-213.754-160.339
		c-0.688-0.512-1.373-1.043-2.584-1.964c1.104-0.175,1.695-0.347,2.283-0.348c14.561-0.016,29.117-0.081,43.676,0.084
		c1.707,0.021,3.541,0.934,5.098,2.097c55.102,41.225,110.174,82.529,165.258,123.806c0.982,0.739,2.033,1.27,3.051,1.898
		c0,11.627,0.012,23.255-0.02,34.885C655.074,431.799,654.755,432.575,654.583,433.348z"/>
</g>
</svg>
